<svg width="34" height="36" viewBox="0 0 34 36" fill="none" xmlns="http://www.w3.org/2000/svg">
<path d="M25.5037 0.0244085C25.7521 -0.00561492 26.2341 -0.00386509 26.4818 0.0080021C28.413 0.099713 30.2302 0.949283 31.5389 2.37231C32.7944 3.75847 33.3728 5.38597 33.2717 7.24907C33.166 8.9826 32.372 10.602 31.0662 11.7471C29.6367 13.0237 27.574 13.7575 25.6599 13.6546C24.7669 13.5776 23.7251 13.3295 22.9009 12.9752C22.2658 13.1924 21.624 13.4588 20.9799 13.6472C20.7966 13.7008 20.7018 13.6605 20.566 13.544C20.4279 13.154 20.7512 12.0714 20.8565 11.6294C19.7343 10.642 18.9753 9.01924 18.8164 7.53678C18.6175 5.82024 19.1227 4.09633 20.2164 2.75851C21.5645 1.09333 23.3952 0.243979 25.5037 0.0244085Z" fill="#FEFEFE"/>
<path d="M24.296 3.72455C25.0473 3.66554 25.164 3.93159 25.4222 4.5762C25.8837 5.74924 26.3137 6.93662 26.752 8.11869C26.9032 8.52644 27.2491 9.26248 27.084 9.66984C26.9073 9.87782 26.585 9.99835 26.3486 9.84424C25.9773 9.60225 25.8172 8.82727 25.6928 8.41881L24.8355 8.42937C24.3428 8.42636 23.9017 8.43079 23.4098 8.45387C23.1908 8.91198 23.1491 9.53996 22.7151 9.87306C22.4318 10.0904 21.9156 9.74296 21.9172 9.42359C21.9179 9.289 21.9994 8.99128 22.0517 8.85494C22.6743 7.23111 23.2098 5.55258 23.915 3.96555C23.9435 3.90146 24.2226 3.76179 24.296 3.72455Z" fill="#6A59F9"/>
<path d="M24.4768 5.21826C24.6708 5.37532 25.2293 7.09049 25.3561 7.45181L24.5537 7.44459L23.761 7.43081C23.9288 6.7167 24.2799 5.97257 24.4768 5.21826Z" fill="#FEFEFE"/>
<path d="M28.8129 3.71621C28.9088 3.71184 28.9955 3.71758 29.0894 3.73885C29.2063 3.76538 29.3547 3.83975 29.4146 3.94623C29.5495 4.18576 29.5801 9.13673 29.47 9.53518C29.4104 9.75098 29.2436 9.81868 29.0607 9.91384C28.8075 9.90399 28.6186 9.86987 28.4377 9.68573C28.1906 9.16276 28.4369 5.63547 28.3496 4.85267C28.2863 4.28425 28.2987 3.98462 28.8129 3.71621Z" fill="#6A59F9"/>
<path d="M14.0605 13.5337C16.5812 13.3028 19.196 14.1744 21.2281 15.6459C24.1568 14.7442 25.5208 17.0762 26.8921 19.1792C27.9693 20.8311 29.5172 22.4281 29.3953 24.5239C29.3417 25.5623 28.8695 26.5347 28.0866 27.2189C27.3937 27.833 26.5141 28.1854 25.5871 28.0981C22.8604 27.8412 23.1111 24.5025 22.9474 22.618L22.5775 18.3516C22.551 18.0532 22.6272 17.4447 22.4471 17.2374C22.0574 16.789 21.6606 17.1838 21.3492 17.4808C21.1021 17.3619 20.7113 16.9125 20.4027 16.6955C19.1505 15.8144 18.0998 15.3843 16.6156 15.0295C16.5196 15.0138 16.4233 14.9999 16.3267 14.9878C13.8718 14.6574 11.2442 14.9797 9.22538 16.5213C8.84804 15.7256 8.35749 15.6567 8.08291 16.5311C7.26407 19.1382 6.6933 21.8593 5.79626 24.4406C5.27525 25.94 3.89702 26.9872 2.29041 26.3058C1.37461 25.9152 0.65454 25.1724 0.292563 24.245C-0.117319 23.2236 -0.0957178 22.0798 0.352337 21.0746C0.535813 20.6595 0.776002 20.2719 1.06606 19.9229C1.76213 19.0698 2.81131 18.0974 3.61713 17.3215C5.52025 15.4889 6.83669 13.2658 9.78834 14.5798C11.3465 13.9018 12.3865 13.6276 14.0605 13.5337Z" fill="#FEFEFE"/>
<path d="M5.04473 27.123C5.46993 33.6193 14.7136 34.9259 19.4992 32.7501C21.6662 31.7649 22.5745 30.4227 23.354 28.2791C23.6588 28.5574 24.0725 28.7712 24.4435 28.9458C24.2817 29.5016 24.2124 29.7416 23.9589 30.2604C23.6315 30.935 23.1997 31.5537 22.6793 32.0935C18.5282 36.4296 8.79072 36.0331 5.15208 31.1359C4.45296 30.195 3.85889 28.7647 3.83838 27.5836C4.32986 27.4479 4.611 27.3963 5.04473 27.123Z" fill="#FEFEFE"/>
<path d="M13.6657 25.168C16.3365 25.0028 16.9187 27.0799 14.5727 28.0163C14.5487 28.3922 14.5529 28.5746 14.5813 28.9503C14.7175 29.161 14.7859 29.2738 14.9639 29.4485C15.4144 29.8904 15.9429 29.851 16.4189 29.4707C16.6939 29.251 16.9482 28.9312 17.2919 28.8188C17.5543 28.7331 17.8798 28.9519 17.936 29.2232C18.0464 30.1359 16.8566 30.7673 16.1266 30.8913C15.3899 31.0164 14.7655 30.8368 14.1904 30.4284C14.0881 30.3313 13.9262 30.1364 13.827 30.0238C13.744 30.0934 13.6597 30.1615 13.5742 30.228C12.4778 31.0757 10.5549 30.6419 10.0242 29.3349C9.96281 29.1839 9.87914 28.8683 9.91271 28.7064C9.93634 28.588 10.0051 28.4833 10.1046 28.4147C10.4601 28.1737 10.8501 28.2542 11.0314 28.6417C11.3561 29.3357 12.0929 29.7973 12.8037 29.3139C13.3018 28.9749 13.38 28.5096 13.4935 27.9696L13.4409 27.9373C11.9483 27.0118 11.7033 25.5695 13.6657 25.168Z" fill="#FEFEFE"/>
<path d="M6.23094 6.80859L6.27021 6.83074C6.61167 7.0193 6.95911 7.85493 7.16068 8.24163C7.60836 8.47306 8.23053 8.77286 8.63664 9.04624C8.31158 9.20112 7.984 9.3467 7.66501 9.51371C6.96397 9.88077 6.81183 10.6338 6.38292 11.2393L6.32298 11.2567C6.04686 11.0666 5.97287 10.3309 5.4925 9.85316C5.01332 9.37666 4.47334 9.35457 4.24365 9.07014C4.26301 8.75454 5.22447 8.49363 5.4797 8.23003C5.81652 7.88211 6.04183 7.25577 6.23094 6.80859Z" fill="#FEFEFE"/>
<path d="M9.83866 3.13599C10.3408 3.31454 10.2387 3.93956 10.6469 4.31067C11.0091 4.63984 11.5165 4.82654 11.965 5.02134C10.5968 5.86112 10.8896 5.26968 9.98709 6.9552C9.55691 6.89045 9.54106 6.02464 9.11455 5.69093L9.08928 5.67152C8.81677 5.45884 8.21084 5.1936 7.875 5.03523C9.3362 4.39292 9.16005 4.44045 9.83866 3.13599Z" fill="#FEFEFE"/>
<path d="M18.5224 22.2135C18.7514 22.2055 19.0115 22.2119 19.2434 22.2119C20.3534 22.9289 20.3637 24.1807 19.1201 24.7312C18.5672 24.8746 17.9958 24.5889 17.7509 24.0787C17.5957 23.7473 17.5776 23.368 17.7006 23.0234C17.8614 22.5737 18.1121 22.4057 18.5224 22.2135Z" fill="#FEFEFE"/>
<path d="M10.1088 21.6368C10.7788 21.5327 11.4092 21.9829 11.5282 22.6504C11.6472 23.3179 11.2113 23.9582 10.5467 24.0922C9.94255 24.214 9.34006 23.8764 9.12853 23.2976C9.02747 23.0211 9.02747 22.7178 9.12853 22.4413C9.28439 22.0146 9.65993 21.7064 10.1088 21.6368Z" fill="#FEFEFE"/>
</svg>
