<svg width="60" height="49" viewBox="0 0 60 49" fill="none" xmlns="http://www.w3.org/2000/svg">
<path d="M2.9193 5.4926C3.36312 4.75427 4.34065 3.75275 4.98364 3.1906C7.618 0.906447 11.0578 -0.228748 14.5354 0.0383876C17.5967 0.264023 20.4775 1.57224 22.6609 3.72835C23.4077 4.46296 23.8836 5.11377 24.5564 5.88532C24.9643 5.43023 25.3447 4.93152 25.7667 4.4664C26.7604 3.37106 28.3434 2.03632 29.7147 1.43328C32.7208 -0.115177 36.22 -0.407278 39.4415 0.621319C42.655 1.66805 45.1898 3.9433 46.71 6.94123C47.0202 7.54791 47.2776 8.18025 47.4789 8.8312L47.2234 9.10804C47.1003 9.62672 46.8354 10.5463 46.7524 11.0203C46.9122 11.6566 47.3294 11.7358 47.8998 11.8924L47.9243 12.2615C48.2204 12.5957 47.8871 14.375 47.9503 14.8372C48.3764 17.9563 46.9782 21.2314 45.4787 23.8957C45.1318 24.5118 44.7777 25.1995 44.3191 25.7464C43.4328 26.9161 42.2732 28.065 41.5576 29.326C41.353 29.6863 41.8391 30.1828 41.956 30.5715C41.8772 30.4772 41.8084 30.3995 41.725 30.3095C41.1852 29.4094 41.0396 28.7819 40.8312 27.7847C40.6148 25.9622 40.8463 25.0535 41.0231 23.285C40.9519 23.1706 40.8567 23.0383 40.7794 22.9249C40.5276 22.8446 40.3631 22.8192 40.1062 22.7753C39.7979 22.6497 39.1672 22.6336 38.8155 22.6163C38.5902 22.7349 38.4139 22.88 38.363 23.1366C37.9514 25.2151 38.0457 27.9119 38.6901 29.8719C39.0644 31.0858 39.7446 32.1542 40.6657 33.0421C40.9033 33.2715 41.3823 33.5575 41.519 33.8137L41.4421 33.7624C40.8477 33.3577 39.8894 32.4637 39.5391 31.8419C38.7406 31.7227 34.35 35.5208 33.5486 36.2562C33.1205 36.5882 32.7868 36.8605 32.3446 37.1992C31.6206 37.7541 31.0931 38.1069 30.3063 38.6463C28.8699 39.6313 26.7534 41.328 24.9214 41.1683C24.523 41.1335 24.0454 41.1339 23.7692 40.896C23.592 40.7382 23.3822 40.873 23.1592 40.6134C22.5839 40.4599 19.8913 38.4828 19.2578 38.0108C16.8967 36.2458 14.6023 34.3931 12.3793 32.4566C6.59417 27.438 0.0547031 20.9879 0.460483 12.7052C0.581443 10.2362 1.43265 7.4837 2.9193 5.4926Z" fill="#FE8B7D"/>
<path d="M2.91925 5.4926C3.36307 4.75426 4.34061 3.75275 4.9836 3.1906C7.61796 0.906447 11.0578 -0.228748 14.5353 0.0383876C17.5967 0.264023 20.4775 1.57224 22.6609 3.72835C23.4076 4.46296 23.8836 5.11377 24.5564 5.88531C24.9642 5.43023 25.3446 4.93152 25.7666 4.4664C26.7604 3.37106 28.3433 2.03632 29.7146 1.43328C29.9569 1.45904 30.0159 1.3475 30.2492 1.2725L30.2954 1.29846C30.0121 1.6404 29.3432 1.98347 29.2687 2.28386C29.6722 2.44553 31.3476 1.82505 31.8213 1.67182C32.0693 1.59169 32.5148 1.59555 32.7858 1.55033C33.4189 1.44472 34.0383 1.31725 34.6733 1.23289C35.6118 1.28216 37.4998 1.5809 38.336 1.93038C39.1186 2.25734 39.845 3.0538 40.3352 3.673C40.4932 4.28491 39.8445 5.8302 39.54 6.42246C39.0182 7.43834 37.0072 7.68447 36.0733 8.25058C35.3908 8.66403 35.2225 9.35506 34.7935 9.9663C34.7058 10.0908 33.755 10.2416 33.573 10.2821C33.1031 10.3865 32.4728 10.9147 31.9906 10.82C31.4456 10.7129 30.8705 10.2646 30.3671 10.0232C30.0192 9.85509 28.6964 9.56379 28.3269 9.57533C26.9244 9.61918 25.3306 10.796 23.9248 10.8925C23.5819 10.8627 23.2783 10.4556 22.9873 10.364C22.4629 10.1988 21.9885 10.1788 21.44 10.0747C21.1153 10.0131 19.7377 9.6206 19.4512 9.77548C18.7787 10.1389 18.0756 10.3665 17.4302 10.7515C16.532 11.5428 16.5615 12.8054 15.2609 13.2563C14.4778 13.5279 14.4669 13.9029 13.4067 13.8968C12.6921 13.8927 11.5277 14.3577 11.0153 14.8339C10.5432 15.2251 10.0829 16.0503 9.58355 16.2765C9.56059 16.2939 9.53759 16.3113 9.51463 16.3288L9.51764 16.389C9.54333 17.0179 9.12794 17.4095 8.52102 17.5021C8.30229 17.5354 7.5407 17.2344 7.34049 17.2465C6.30855 17.3087 5.64266 17.3263 4.68671 16.8734C4.58234 16.8239 4.50371 16.8144 4.41321 16.7107C4.10449 16.5185 3.22608 16.0815 3.08716 15.6964C2.74813 14.7567 2.49824 13.6933 2.30035 12.714C2.13932 11.4534 2.11028 9.73869 2.6358 8.57165C2.73677 8.34743 2.77397 7.72667 2.81969 7.63185C3.08806 7.07534 3.44509 6.19197 3.83508 5.73109C4.11995 5.39448 4.13725 5.42802 4.21206 5.01193L4.14394 4.93105C3.85563 5.11877 2.77434 6.04467 2.69185 6.07548C2.68709 5.80792 3.01659 5.61681 2.91925 5.4926Z" fill="#FEAB9F"/>
<path d="M8.56992 3.5551C10.4491 3.46725 10.2807 5.0711 8.8768 5.85169C7.69477 6.5089 6.64686 7.90332 5.99359 9.0656C5.59903 9.76762 5.25576 11.1952 4.61739 11.6403C4.05129 11.8503 3.42211 11.6892 3.32892 11.0254C2.94628 8.29948 5.94984 4.15141 8.56992 3.5551Z" fill="#FEDFD9"/>
<path d="M3.82336 13.0692C5.03084 13.0826 5.06987 15.0184 4.06924 15.2829C3.63423 15.3006 3.27936 15.2011 3.12795 14.7626C2.86604 14.0041 3.08194 13.3443 3.82336 13.0692Z" fill="#E1BDB8"/>
<path d="M40.7793 22.9249C41.1833 20.5372 41.7113 18.1722 42.3613 15.8393C43.0444 13.4431 43.6798 10.6997 46.7524 11.0203C46.9122 11.6566 47.3294 11.7358 47.8998 11.8924L47.9243 12.2615C48.2203 12.5956 47.8871 14.3749 47.9502 14.8372C48.3764 17.9563 46.9782 21.2313 45.4787 23.8956C45.1317 24.5117 44.7777 25.1995 44.319 25.7464C43.4328 26.916 42.2732 28.0649 41.5576 29.3259C41.353 29.6863 41.839 30.1828 41.9559 30.5714C41.8772 30.4772 41.8084 30.3995 41.7249 30.3095C41.1852 29.4093 41.0395 28.7819 40.8312 27.7846C40.6148 25.9621 40.8463 25.0535 41.023 23.285C40.9518 23.1706 40.8566 23.0382 40.7793 22.9249Z" fill="#F96F62"/>
<path d="M47.9243 12.2615C48.2203 12.5956 47.8871 14.3749 47.9502 14.8372C48.3764 17.9563 46.9782 21.2313 45.4787 23.8956C45.1317 24.5117 44.7777 25.1995 44.3191 25.7464C43.4328 26.916 42.2732 28.0649 41.5576 29.3259C41.353 29.6863 41.839 30.1828 41.9559 30.5714C41.8772 30.4772 41.8084 30.3995 41.7249 30.3095C41.1852 29.4093 41.0395 28.7819 40.8312 27.7846C41.065 27.5618 41.2653 27.3225 41.4822 27.087C44.8616 23.4117 47.7504 18.8271 47.9106 13.6973C47.9252 13.2238 47.8998 12.739 47.9243 12.2615Z" fill="#E1BDB8"/>
<path d="M38.8156 22.6163C38.9183 22.1 38.982 21.4892 39.0857 20.9418C39.3987 19.3436 39.7616 17.7556 40.1736 16.1802C40.7822 13.8912 41.6048 10.7377 43.7827 9.53271C44.8744 8.9284 46.0261 8.78397 47.2234 9.1081C47.1004 9.62678 46.8354 10.5463 46.7525 11.0204C43.6799 10.6998 43.0445 13.4432 42.3614 15.8394C41.7113 18.1723 41.1834 20.5373 40.7794 22.925C40.5277 22.8447 40.3632 22.8192 40.1062 22.7754C39.7979 22.6498 39.1672 22.6337 38.8156 22.6163Z" fill="#DEDDDD"/>
<path d="M45.5735 9.65662L45.6188 9.66595C45.491 9.84744 45.2798 9.79054 45.1172 9.96667C45.5811 9.98183 45.8012 9.78573 46.3358 9.97289L46.3641 10.0409C46.0412 10.1012 45.4547 10.0871 45.0366 10.1504L44.9654 10.1615C44.8443 10.2186 44.6142 10.3428 44.4879 10.3128C44.2894 10.2659 43.976 10.5336 43.7511 10.5014C43.9448 10.1361 45.17 9.73943 45.5735 9.65662Z" fill="#FCF2F0"/>
<path d="M38.6901 29.8719C39.0644 31.0859 39.7447 32.1542 40.6658 33.0422C40.9034 33.2716 41.3823 33.5575 41.519 33.8137L41.4422 33.7624C40.8477 33.3578 39.8894 32.4637 39.5391 31.8419C38.7406 31.7227 34.35 35.5208 33.5486 36.2562C33.1206 36.5883 32.7868 36.8605 32.3447 37.1992C31.6206 37.7541 31.0931 38.1069 30.3063 38.6463C28.87 39.6313 26.7534 41.328 24.9214 41.1683C24.523 41.1335 24.0454 41.1339 23.7693 40.8961C23.5921 40.7383 23.3822 40.873 23.1592 40.6134C24.2669 40.8965 24.8663 40.8278 25.866 40.2022C26.604 39.7406 27.304 39.2483 28.0125 38.7415C31.7549 36.0122 35.3211 33.0497 38.6901 29.8719Z" fill="#E0B6B0"/>
<path d="M17.1415 30.571C16.069 29.7047 15.8925 27.7376 16.3539 26.5119C16.9007 25.0587 17.8808 24.6498 18.7175 23.5852C19.867 22.1226 20.2342 20.9567 22.0869 20.137C23.2534 19.617 24.5783 19.5793 25.7726 20.032C28.0262 20.9105 28.3628 22.6811 29.8934 24.2508C30.5887 24.964 30.988 25.3263 31.4009 26.2632C32.2886 28.1931 31.4278 30.5399 29.4936 31.4104C27.2366 32.4265 26.0047 30.9003 23.895 30.7834C23.2138 30.7457 22.29 31.1763 21.6609 31.392C20.2864 31.987 18.1315 31.8546 17.1415 30.571Z" fill="#FCF2F0"/>
<path d="M31.4009 26.2632C32.2886 28.1931 31.4278 30.5399 29.4937 31.4104C27.2366 32.4265 26.0047 30.9003 23.8951 30.7834C23.2138 30.7457 22.29 31.1763 21.6609 31.392C20.2865 31.987 18.1315 31.8546 17.1415 30.571C17.5639 30.7641 17.8634 31.14 18.4533 31.3713C20.7679 32.2795 22.0097 30.7151 24.1161 30.6845C25.0416 30.6708 26.2184 31.4255 27.1202 31.5823C27.6486 31.6742 28.8969 31.678 29.3565 31.3511C29.5762 30.6977 29.8708 31.1975 30.4058 30.7462C30.9036 30.3265 30.8042 30.0533 31.1671 29.626C31.1902 29.5983 31.2708 29.5309 31.2935 29.4857C31.8492 28.3646 31.6098 27.3419 31.4009 26.2632Z" fill="#E1BDB8"/>
<path d="M19.8884 10.9281C23.6321 10.6798 24.7439 17.9868 20.8455 18.7713C20.202 18.7895 19.6949 18.717 19.1478 18.3453C16.7797 16.7365 16.5621 11.5702 19.8884 10.9281Z" fill="#FCF2F0"/>
<path d="M27.8338 10.9299C31.1335 10.7157 31.4362 15.1306 30.0856 17.1982C29.4931 18.105 29.0047 18.5121 27.9483 18.7589C23.8894 19.0469 24.0708 11.8185 27.8338 10.9299Z" fill="#FCF2F0"/>
<path d="M13.8159 16.5815C14.5095 16.5282 14.9215 16.5586 15.548 16.879C17.9396 18.1024 19.2913 22.7169 15.9683 23.6983C15.3299 23.7491 14.8729 23.7162 14.2927 23.4276C11.8817 22.2283 10.5554 17.6284 13.8159 16.5815Z" fill="#FCF2F0"/>
<path d="M33.5095 16.5783C37.7384 16.317 36.5797 22.9974 32.8726 23.7139C28.6159 23.948 29.7331 17.446 33.5095 16.5783Z" fill="#FEF9F8"/>
<path d="M38.8155 22.6162C39.1672 22.6335 39.7979 22.6497 40.1062 22.7753C40.3631 22.8191 40.5276 22.8446 40.7794 22.9248C40.8567 23.0382 40.9519 23.1705 41.0231 23.285C40.8463 25.0535 40.6148 25.9621 40.8312 27.7846C41.0396 28.7819 41.1852 29.4093 41.725 30.3095C41.8084 30.3995 41.8773 30.4772 41.956 30.5714C42.8427 31.726 44.049 32.3035 45.4834 32.4518C47.707 32.6822 49.528 31.4217 50.8965 29.7899C51.2826 29.3292 51.6399 28.7917 52.0901 28.3989C52.1782 28.324 52.3791 28.2976 52.4964 28.2802C52.6247 28.4295 53.1753 28.9406 53.1597 28.9194C53.3648 29.0527 54.0799 29.4597 54.1548 29.618L54.1963 29.6265C54.4047 30.1027 53.5165 30.8474 53.2398 31.2163C52.9971 31.5404 52.9315 31.9144 52.7062 32.2418C51.7248 33.238 50.2757 34.3761 49.0105 34.9503C47.5623 35.598 45.7795 35.2066 44.4054 36.0281C44.2993 36.1167 43.5234 36.738 43.4979 36.7889C42.0154 39.7461 39.7248 42.4208 37.3094 44.6875C36.5476 45.4026 35.1136 45.9754 34.2265 46.6273C34.0073 46.7884 32.7925 47.3113 32.4724 47.4526C29.4521 48.7862 26.2692 49.3298 22.9863 48.7984C22.5751 48.7325 21.9226 48.8516 21.4472 48.7951C18.7688 48.4616 16.1715 47.6523 13.7776 46.4064C12.4291 45.705 11.1588 44.8623 9.98797 43.8928C9.64545 43.6083 9.05192 42.9602 8.68913 42.8876C7.0282 42.555 5.85857 43.0878 4.30847 42.1726C3.49371 41.6921 2.24922 41.6063 1.6776 40.5408C-0.113665 38.7786 -0.516285 36.0427 0.691673 33.84C1.89968 31.6374 4.42434 30.5045 6.87429 31.0655C9.3242 31.6266 11.1034 33.7449 11.2313 36.2533C11.3947 36.9175 11.2631 37.6335 11.0779 38.2807C11.0559 38.3575 10.9024 38.7607 10.9044 38.7687C11.0853 39.528 10.6886 39.9007 10.5445 40.562C10.5159 40.693 10.9475 40.9747 11.0066 41.2366L11.1801 41.4217C11.4033 41.5531 12.5169 42.5334 12.9451 42.8264C15.2261 44.4162 17.8279 45.4878 20.5676 45.966C25.502 46.8205 30.5741 45.6824 34.6696 42.8024C37.2062 41.0114 39.2704 38.633 40.6865 35.8708C40.9792 35.3083 41.4148 34.4237 41.519 33.8137C41.3823 33.5574 40.9033 33.2715 40.6658 33.0421C39.7446 32.1541 39.0644 31.0858 38.6901 29.8719C38.0457 27.9118 37.9515 25.215 38.363 23.1365C38.4139 22.8799 38.5902 22.7349 38.8155 22.6162Z" fill="#9A989B"/>
<path d="M1.6776 40.5408C-0.113665 38.7786 -0.516285 36.0427 0.691673 33.8401C1.89968 31.6374 4.42434 30.5045 6.87429 31.0656C9.3242 31.6266 11.1034 33.7449 11.2313 36.2533C11.3947 36.9175 11.2631 37.6335 11.0779 38.2807C11.0559 38.3575 10.9024 38.7607 10.9044 38.7687C11.0853 39.5281 10.6886 39.9007 10.5445 40.562C10.5159 40.693 10.9475 40.9747 11.0066 41.2366C10.8069 41.0887 10.3916 40.6341 10.2094 40.4396L9.92811 40.1433C9.3719 40.807 8.66961 41.3336 7.87606 41.6813C5.77094 42.6036 3.3158 42.1518 1.6776 40.5408Z" fill="#8E8C8F"/>
<path d="M11.2313 36.2533C11.3947 36.9175 11.2631 37.6335 11.0779 38.2807C11.0559 38.3575 10.9024 38.7607 10.9044 38.7687C11.0853 39.5281 10.6886 39.9007 10.5445 40.562C10.5159 40.693 10.9475 40.9747 11.0066 41.2366C10.8069 41.0887 10.3916 40.6341 10.2094 40.4396L9.9281 40.1433C10.8379 39.057 11.3035 37.6674 11.2313 36.2533Z" fill="#E1BDB8"/>
<path d="M3.70683 32.6173C3.77264 32.5942 3.83071 32.5692 3.89298 32.5391C4.04991 32.5555 4.04751 32.5447 4.17639 32.6305C4.13212 32.7525 3.63899 33.0492 3.48475 33.1566L3.49701 33.1627C3.3175 33.2989 3.14643 33.403 3.02618 33.5895L3.04899 33.6281C3.20974 33.5179 3.29949 33.4421 3.48136 33.3785L3.52284 33.4129C4.52668 32.841 5.51341 32.5928 6.6608 32.9084C7.61462 33.1684 8.42128 33.8057 8.89508 34.6729C9.24439 35.3032 9.32495 35.8134 9.3966 36.5134C9.40504 36.4045 9.39679 36.21 9.45265 36.1492C9.72455 37.105 9.26937 38.2186 8.7439 38.9812C8.31884 39.5978 7.40589 40.148 6.69794 40.3652C5.75104 40.6591 4.72543 40.5569 3.85513 40.0821C3.36351 39.8107 2.86401 39.6379 2.71765 39.1569L2.75866 39.2139C2.93675 39.4598 3.03376 39.5983 3.32132 39.717C3.41074 39.6694 3.3875 39.6906 3.45732 39.6204C2.81188 39.1018 2.6047 38.8239 2.18063 38.1079C2.16319 38.1263 2.17893 38.1135 2.10695 38.1479L2.0797 38.0358C1.98094 38.1168 2.03417 38.1041 1.92669 38.1112C1.87606 37.9571 1.89392 37.9421 1.7839 37.8441L1.79356 38.0217C1.53651 37.9072 1.48555 37.162 1.47325 36.8968C1.57432 36.8737 1.54094 36.8935 1.6175 36.8294C1.60406 36.6528 1.54952 36.4851 1.50229 36.3141L1.43799 36.4375L1.38859 36.4502C1.27809 36.1817 1.38547 35.9745 1.44364 35.705C1.51926 35.355 1.57139 35.397 1.31495 35.1864C1.31227 34.9565 1.74869 34.5462 1.92975 34.347C1.90576 33.9108 2.49317 32.6041 3.0422 32.6455C3.2606 32.662 3.4839 32.6168 3.70683 32.6173Z" fill="#FCF2F0"/>
<path d="M3.70683 32.6173C3.77264 32.5942 3.83071 32.5692 3.89298 32.5391C4.04991 32.5555 4.04751 32.5447 4.17639 32.6305C4.13212 32.7525 3.63899 33.0492 3.48475 33.1566L3.49701 33.1627C3.3175 33.2989 3.14643 33.403 3.02618 33.5895L3.04899 33.6281C3.20974 33.5179 3.29949 33.4421 3.48136 33.3785L3.52284 33.4129C1.91867 34.6517 1.44963 36.1973 2.18063 38.1079C2.16319 38.1263 2.17893 38.1135 2.10695 38.1479L2.0797 38.0358C1.98094 38.1168 2.03417 38.1041 1.92669 38.1112C1.87606 37.9571 1.89392 37.9421 1.7839 37.8441L1.79356 38.0217C1.53651 37.9072 1.48555 37.162 1.47325 36.8968C1.57432 36.8737 1.54094 36.8935 1.6175 36.8294C1.60406 36.6528 1.54952 36.4851 1.50229 36.3141L1.43799 36.4375L1.38859 36.4502C1.27809 36.1817 1.38547 35.9745 1.44364 35.705C1.51926 35.355 1.57139 35.397 1.31495 35.1864C1.31227 34.9565 1.74869 34.5462 1.92975 34.347C1.90576 33.9108 2.49317 32.6041 3.0422 32.6455C3.2606 32.662 3.4839 32.6168 3.70683 32.6173Z" fill="#757376"/>
<path d="M1.92979 34.347C1.90579 33.9108 2.4932 32.6041 3.04224 32.6456C3.26064 32.6621 3.48394 32.6168 3.70687 32.6173C2.87023 33.111 2.55882 33.7978 1.92979 34.347Z" fill="#9A989B"/>
<path d="M9.39661 36.5133C9.40505 36.4045 9.3968 36.2099 9.45266 36.1492C9.72456 37.1049 9.26938 38.2185 8.74391 38.9812C8.31885 39.5978 7.40589 40.148 6.69795 40.3651C5.75105 40.6591 4.72543 40.5568 3.85514 40.082C3.36352 39.8107 2.86402 39.6378 2.71765 39.1569L2.75866 39.2139C2.93676 39.4597 3.03377 39.5982 3.32132 39.7169C3.41075 39.6694 3.38751 39.6906 3.45732 39.6204C4.01569 40.0132 4.67122 40.2459 5.35258 40.2926C6.35025 40.3731 7.33787 40.0457 8.08966 39.3853C8.96924 38.6128 9.32731 37.6551 9.39661 36.5133Z" fill="#757376"/>
<path d="M5.2492 34.533C6.36349 34.3187 7.43898 35.0531 7.64451 36.1681C7.85004 37.2835 7.10683 38.3523 5.98929 38.5488C4.88415 38.7433 3.82892 38.0104 3.6257 36.9076C3.42244 35.8049 4.14726 34.745 5.2492 34.533Z" fill="#CAC9C9"/>
<path d="M9.8022 37.9354C9.906 38.1846 9.59662 38.7277 9.47717 38.9571L9.51323 38.9802C9.76453 38.7786 9.87347 38.4969 10.1362 38.2878C10.3225 38.7056 8.64751 40.3793 8.27605 40.6129C8.1696 40.6798 7.68293 40.8635 7.53039 40.9214L7.63683 40.9799C6.96193 41.2517 6.52942 41.3586 5.81346 41.3906C5.56456 41.3868 5.24859 41.4024 5.01934 41.3298L4.9913 41.2714C5.10377 41.2493 5.21587 41.2248 5.32745 41.198C5.27041 41.1037 4.83022 40.9907 4.62219 40.8588C4.88028 40.8159 5.21766 40.8847 5.48924 40.912C6.00245 40.9648 6.73434 40.8145 7.20998 40.6223C8.59528 40.0627 9.2229 39.2426 9.8022 37.9354Z" fill="#908E91"/>
<path d="M4.97939 31.2818C5.19128 31.2517 5.50104 31.2743 5.72241 31.2818C5.57378 31.3158 5.57222 31.303 5.47262 31.4137L5.48143 31.5112C5.63831 31.6102 5.80448 31.5122 6.06856 31.5734C4.1083 31.6573 2.51459 32.3323 1.44475 34.0488C1.33544 34.2372 1.19779 34.5255 1.09658 34.7238L1.05222 34.6942C1.10285 34.6023 1.09408 34.615 1.12501 34.5137L1.04548 34.4629C0.922351 34.5194 0.956621 34.5114 0.825195 34.5368C0.834718 34.2405 1.38489 33.4162 1.57924 33.1764C2.44761 32.1034 3.61686 31.4524 4.97939 31.2818Z" fill="#C4C3C4"/>
<path d="M53.1597 28.9194C53.3647 29.0527 54.0798 29.4597 54.1548 29.618C54.1472 29.7136 54.1289 29.9336 54.0737 30.0099C52.3625 32.3888 50.0574 34.4595 47.0659 34.9405C46.694 35.0003 44.0471 34.9348 44.0089 34.9829C43.3697 35.7907 42.9581 36.9764 42.3774 37.8676L42.3491 37.8068C42.5504 37.3852 43.0274 36.5034 43.2693 36.1186L43.2612 36.0229C43.1151 36.0065 43.1853 35.9933 43.0501 36.0865C42.8761 36.8044 42.5254 37.0965 42.2039 37.6716C40.1255 41.3873 36.9728 44.2495 33.2737 46.3146C32.7839 46.5906 32.2414 46.707 31.7304 46.9105C30.6419 47.3438 29.0156 47.9543 27.8781 48.146C27.3497 48.2355 26.8189 48.3095 26.286 48.3679C25.4622 48.4513 24.6385 48.5686 23.814 48.5384C23.3929 48.5229 22.7382 48.578 22.3414 48.4918C21.5675 48.3241 20.8017 48.3246 20.0239 48.1842C19.7845 48.1409 19.5694 48.0697 19.3367 48.0061C16.7476 47.5322 14.343 46.4342 12.1223 45.0465C11.8262 44.8614 11.4171 44.5863 11.2859 44.2499L11.3221 44.1929C11.8499 44.2853 12.9409 45.3725 13.482 45.4149C13.3637 45.3018 13.2755 45.2505 13.224 45.1101L13.2676 45.0818C13.4263 45.1699 14.0863 45.502 14.1224 45.6118L13.8606 45.5939C14.0713 45.836 15.7418 46.4931 16.1058 46.5897L16.1235 46.5388C15.7271 46.2915 15.3071 46.1459 14.8759 45.9919C15.0898 45.8266 16.927 46.6961 16.958 46.7592C16.8457 46.8205 16.7353 46.7866 16.6019 46.7701C16.7717 46.8662 17.1491 46.9868 17.3388 46.9948L17.2074 46.9463L17.2085 46.8827C17.3922 46.7974 17.3026 46.8078 17.4826 46.82C17.5559 46.9524 17.5313 46.8794 17.4997 47.0664C18.2759 47.2816 20.0843 47.8822 20.7967 47.5789C20.9842 47.4988 21.3376 47.6175 21.5411 47.6406C22.1567 47.7103 22.7926 47.6137 23.4 47.716L23.4269 47.8041L23.4679 47.7763C23.3574 47.8234 23.3222 47.813 23.2773 47.8846C23.4808 47.9317 23.9955 47.9557 24.1923 47.9143C24.1869 47.8413 24.1994 47.8799 24.1314 47.8092C24.3033 47.6378 24.5719 47.7282 24.8361 47.6613C25.5057 47.6373 26.2341 47.7334 26.8599 47.6679C28.1694 47.5308 29.4502 47.2289 30.6433 46.6674C30.7984 46.5944 31.0464 46.5214 31.1378 46.4031C31.2679 46.3362 31.769 46.1478 31.9515 46.0654C33.0649 45.5632 33.7381 45.2326 34.753 44.5429C35.3587 44.355 36.228 43.8199 36.6984 43.3757C37.0086 43.0831 36.7583 43.0798 37.2387 42.743L37.2688 42.7623L37.1797 42.8942L37.3216 42.8702C37.9297 42.2955 38.5317 41.6817 38.9946 40.9916C39.1125 40.8164 39.2228 40.7486 39.3722 40.5013C40.084 39.5794 40.719 38.9628 41.3196 37.8996C41.3771 37.967 41.3403 37.9439 41.4317 37.9656C41.6759 37.5807 41.5647 37.333 41.6788 37.1676C41.9154 36.8252 42.8511 34.8274 43.0218 34.6917L43.0717 34.7756C43.1905 34.7031 43.2669 34.4557 43.3833 34.3135C43.5474 34.1142 44.1428 34.101 44.427 34.0742C44.4049 33.9918 44.4152 34.0384 44.3992 33.9343C44.7938 33.955 45.1365 33.979 45.5287 34.0228L45.5527 34.0794C45.3792 34.15 44.9078 34.1213 44.6604 34.1519C45.0342 34.2447 46.9905 34.2325 47.3275 34.0619C47.1135 34.0619 47.0975 34.0643 46.8971 34.0012L46.8901 33.9465L46.8849 33.9494C47.1493 33.8891 47.3794 33.8382 47.6476 33.7944L47.6768 33.8264L47.4341 34.0177L47.5024 34.0346C47.6971 33.9089 48.1242 33.8415 48.3863 33.776C48.5023 33.5603 48.4028 33.5885 48.6111 33.4552C48.9185 33.402 49.5464 33.2376 49.8057 33.0261C50.1639 32.734 50.5585 32.4067 50.9295 32.124C50.9629 32.0383 50.9912 31.9667 51.0139 31.9083C51.1765 31.8136 51.2892 31.8263 51.473 31.8051C51.7756 31.5705 52.5549 30.5794 52.8665 30.2459C52.9867 30.1169 52.9867 30.0825 52.9678 29.9548L52.9725 29.9586C52.8203 29.9539 52.8556 29.9482 52.6986 30.0518L52.6586 30.0792L52.5506 30.0307C52.6576 29.9374 52.6892 29.9232 52.7585 29.7989L52.709 29.6529C52.7788 29.3632 52.9466 29.5441 53.122 29.2148C53.113 29.0852 53.1003 29.04 53.1597 28.9194Z" fill="#757376"/>
<path d="M54.1548 29.618L54.1963 29.6265C54.4047 30.1028 53.5165 30.8475 53.2398 31.2163C52.9971 31.5404 52.9315 31.9144 52.7062 32.2418C51.7248 33.2381 50.2757 34.3762 49.0105 34.9504C47.5623 35.5981 45.7795 35.2066 44.4054 36.0282C44.2993 36.1167 43.5234 36.738 43.4979 36.7889C42.0154 39.7462 39.7249 42.4209 37.3094 44.6876C36.5476 45.4026 35.1136 45.9754 34.2265 46.6274C34.0073 46.7885 32.7925 47.3114 32.4724 47.4527C29.4521 48.7862 26.2692 49.3298 22.9863 48.7985C22.5751 48.7325 21.9226 48.8517 21.4472 48.7952C18.7689 48.4617 16.1715 47.6524 13.7776 46.4065C12.4291 45.7051 11.1588 44.8623 9.98798 43.8929C9.64546 43.6084 9.05193 42.9602 8.68914 42.8877C7.02822 42.5551 5.85858 43.0879 4.30848 42.1726C3.49372 41.6921 2.24923 41.6064 1.67761 40.5409C3.31581 42.1519 5.77095 42.6036 7.87607 41.6813C8.53905 42.4143 9.46926 43.3554 10.2459 43.9716C11.2334 44.8534 13.0846 45.9627 14.2633 46.5384C19.354 49.0698 25.2473 49.4589 30.6269 47.6185C34.614 46.252 38.1108 43.745 40.6832 40.4085C41.1574 39.8041 42.0493 38.5436 42.3774 37.8676C42.9582 36.9764 43.3697 35.7908 44.0089 34.9829C44.0471 34.9348 46.694 35.0003 47.0659 34.9405C50.0574 34.4595 52.3626 32.3888 54.0737 30.01C54.1289 29.9337 54.1473 29.7137 54.1548 29.618Z" fill="#E1BDB8"/>
<path d="M34.6686 43.8525C34.9113 43.8124 35.1188 43.6372 35.2493 43.6198C35.1466 43.738 35.1687 43.672 35.1433 43.8091C34.8482 43.8845 34.9467 43.8251 34.7416 44.0159C34.8967 44.0183 35.0386 43.9989 35.1645 44.0781C35.1348 44.1926 34.8802 44.3984 34.7529 44.543C33.738 45.2326 33.0649 45.5633 31.9514 46.0655C31.769 46.1479 31.2679 46.3363 31.1378 46.4032C31.0463 46.5215 30.7984 46.5945 30.6433 46.6675C29.4502 47.229 28.1694 47.5309 26.8599 47.668C26.2341 47.7335 25.5056 47.6374 24.8361 47.6614C25.1421 47.5446 25.52 47.4753 25.8441 47.4061C25.9005 47.3505 25.9412 47.3114 26.0022 47.2601L26.0484 47.2224C25.6981 47.0877 23.2166 47.2224 22.4471 47.0731C22.4439 47.0773 24.7379 47.066 24.9899 47.0481C27.6716 46.8606 30.2874 46.1333 32.6807 44.91C33.4014 44.5421 33.9671 44.1681 34.6497 43.7917L34.6686 43.8525Z" fill="#9A989B"/>
<path d="M34.7416 44.0159C34.8967 44.0182 35.0386 43.9989 35.1645 44.078C35.1348 44.1925 34.8802 44.3984 34.7529 44.543C33.738 45.2326 33.0649 45.5633 31.9514 46.0654C31.769 46.1479 31.2679 46.3363 31.1378 46.4032C30.8931 46.4211 30.7574 46.4809 30.4821 46.4785L30.4557 46.4319C30.6353 46.292 30.8531 46.1116 31.0407 45.9915C31.7822 45.6175 32.6024 45.3367 33.3241 44.9467C33.7871 44.6965 34.1854 44.3249 34.6771 44.0512L34.7416 44.0159Z" fill="#9A989B"/>
<path d="M34.6687 43.8525C34.9114 43.8124 35.1188 43.6372 35.2494 43.6198C35.1467 43.738 35.1688 43.672 35.1434 43.8091C34.8483 43.8845 34.9468 43.8251 34.7417 44.0159L34.6771 44.0512C34.1855 44.3249 33.7871 44.6966 33.3242 44.9467C32.6025 45.3368 31.7823 45.6175 31.0408 45.9915C30.9309 45.9472 30.9776 45.9783 30.8979 45.9025C31.0771 45.7155 32.1717 45.2293 32.4917 45.0871C33.2903 44.7324 33.9418 44.2373 34.6687 43.8525Z" fill="#908E91"/>
<path d="M52.4318 28.7787C52.6454 28.9341 52.7123 28.9808 52.8863 29.1763C52.7255 29.3651 52.3626 29.9036 52.3508 30.1386L52.5506 30.0307L52.6586 30.0793L52.6987 30.0519C52.8556 29.9483 52.8203 29.954 52.9725 29.9587L52.9678 29.9549C52.9867 30.0826 52.9867 30.117 52.8665 30.246C52.5549 30.5795 51.7757 31.5706 51.473 31.8052C51.2892 31.8264 51.1765 31.8137 51.0139 31.9084C50.9913 31.9668 50.963 32.0384 50.9295 32.1241C50.5585 32.4068 50.164 32.7341 49.8057 33.0262C49.5464 33.2377 48.9185 33.4021 48.6112 33.4553C48.8935 33.1699 49.2344 32.9207 49.5445 32.6117C49.4215 32.6536 49.1801 32.7619 49.0844 32.7285L49.248 32.5641C49.0005 32.6927 47.4553 33.2297 47.1819 33.1614C47.402 33.1345 47.5581 33.0644 47.7608 33.0074C50.0315 32.3667 51.078 30.7468 52.6741 29.1235L52.6492 29.0491C52.5158 28.937 52.5478 28.9266 52.4026 28.9129C52.2216 29.0919 52.0594 29.294 51.8982 29.4914C50.9913 30.5998 49.9957 31.6729 48.697 32.3243C48.4509 32.4477 48.2906 32.6428 47.9927 32.6456C48.0111 32.6065 48.029 32.5674 48.0469 32.5288C48.8577 32.3832 50.2318 31.1867 50.7178 30.6992C51.4259 29.9884 51.8374 29.4066 52.4318 28.7787Z" fill="#9A989C"/>
<path d="M52.8863 29.1761C52.7256 29.365 52.3626 29.9035 52.3508 30.1385C52.3438 30.1588 52.3009 30.2059 52.2848 30.2257C51.9633 30.1969 51.9096 30.4235 51.6353 30.5761L51.6409 30.5799C51.7168 30.2742 52.3975 29.5648 52.6191 29.2991C52.6587 29.252 52.8204 29.1959 52.8863 29.1761Z" fill="#908E91"/>
<path d="M51.63 31.0746C51.6238 31.4462 51.1152 31.7515 50.8258 31.9051L50.821 31.8367C50.986 31.6464 51.4315 31.2437 51.63 31.0746Z" fill="#908E91"/>
<path d="M40.1062 22.7754C40.3631 22.8192 40.5276 22.8447 40.7794 22.925C40.8567 23.0383 40.9519 23.1707 41.0231 23.2851C40.8463 25.0536 40.6148 25.9622 40.8312 27.7847C41.0396 28.782 41.1852 29.4094 41.725 30.3096L41.6401 30.3016C40.959 29.0081 40.8684 28.5441 40.6912 27.0975C40.3226 27.6071 41.1343 29.1235 40.8505 29.4019C40.7209 29.3053 40.5408 29.0712 40.5154 28.9289C40.3758 28.1569 39.887 27.4677 39.8337 26.6575C39.8182 26.4159 39.7682 25.6598 39.9407 25.5006C40.003 25.4436 40.0204 25.4172 40.06 25.3202C39.9535 24.8176 40.0294 23.7209 40.2811 23.2696C40.291 23.2518 40.6672 23.2236 40.7883 23.1001C40.6714 22.8803 40.3871 22.9996 40.0925 22.83L40.1062 22.7754Z" fill="#757376"/>
<path d="M34.6498 43.7916C35.207 43.3459 35.8127 42.9559 36.3661 42.4938C37.8336 41.2686 39.1846 39.7833 40.2127 38.1705C40.3278 37.99 40.4263 37.9199 40.5309 37.7093L40.5927 37.6909C40.3386 38.3994 39.1464 39.6326 38.8316 40.3609C38.7594 40.5271 38.5926 40.586 38.4752 40.8856C38.4328 41.051 38.3286 41.3402 38.1867 41.4448L38.2145 41.3802L38.1905 41.4499L38.1843 41.441L38.2513 41.4212L38.2461 41.3628C38.5134 41.3162 39.112 40.7193 39.3722 40.5012C39.2228 40.7485 39.1125 40.8164 38.9947 40.9916C38.5317 41.6817 37.9298 42.2955 37.3217 42.8702L37.1798 42.8942L37.2689 42.7623L37.2387 42.743C36.7583 43.0798 37.0087 43.0831 36.6985 43.3756C36.228 43.8198 35.3588 44.3549 34.753 44.5429C34.8803 44.3983 35.1349 44.1924 35.1645 44.078C35.0387 43.9988 34.8968 44.0181 34.7417 44.0158C34.9468 43.825 34.8482 43.8844 35.1433 43.809C35.1688 43.6719 35.1466 43.7379 35.2494 43.6196C35.1188 43.6371 34.9114 43.8123 34.6686 43.8523L34.6498 43.7916Z" fill="#989699"/>
<path d="M7.8761 41.6813C8.66965 41.3337 9.37194 40.807 9.92814 40.1433L10.2095 40.4396C10.0944 40.5494 10.0896 40.5381 9.94143 40.6106C9.3776 40.8876 9.08929 41.1895 8.75304 41.71C8.79683 41.7557 9.01702 41.9931 9.0529 42.0224C9.36232 42.338 9.44001 42.5311 9.69405 42.875L9.64257 42.906C9.4615 42.8476 9.11771 42.6842 8.9935 42.7054C9.1518 42.9857 9.9775 43.6239 10.2683 43.8957L10.246 43.9716C9.46928 43.3554 8.53907 42.4143 7.8761 41.6813Z" fill="#6C6B6E"/>
<path d="M38.4752 40.8857C38.7623 40.7745 39.1738 40.1734 39.3562 39.9337C39.8271 39.3293 40.5762 38.9628 40.9458 38.2704C40.9679 38.2289 41.2409 37.8007 41.2418 37.7998L41.3196 37.8997C40.719 38.9628 40.0841 39.5795 39.3722 40.5013C39.112 40.7194 38.5134 41.3162 38.2461 41.3629L38.2513 41.4213L38.1843 41.4411L38.1905 41.45L38.2145 41.3803L38.1867 41.4448C38.3286 41.3403 38.4328 41.051 38.4752 40.8857Z" fill="#908E91"/>
<path d="M10.2095 40.4396C10.3916 40.6341 10.807 41.0887 11.0066 41.2366L11.1802 41.4217L11.0943 41.4533C10.8127 41.2432 10.5895 40.8447 10.3674 40.8089L10.3187 40.847C9.85763 41.1989 8.46211 41.0981 9.58738 42.2762L9.59785 42.3379C9.44464 42.3384 9.52152 42.3506 9.36563 42.2602C9.29158 42.1015 9.24821 42.0346 9.05291 42.0223C9.01704 41.9931 8.79684 41.7557 8.75305 41.71C9.0893 41.1895 9.37761 40.8875 9.94145 40.6106C10.0897 40.538 10.0945 40.5493 10.2095 40.4396Z" fill="#757376"/>
<path d="M39.0385 22.9729C39.2685 22.9523 39.5768 22.9315 39.6612 23.1775C39.6155 23.3548 39.4783 23.4359 39.3341 23.5546L39.3185 23.6069C39.0611 23.5607 38.9796 23.5956 38.8928 23.3464C38.9178 23.1357 38.9154 23.1471 39.0385 22.9729Z" fill="#C4C3C4"/>
<path d="M10.0629 43.2457C10.3775 43.339 10.7022 43.4949 10.6854 43.8567C10.4048 43.7794 10.1668 43.5123 10.0629 43.2457Z" fill="#757376"/>
<path d="M57.5927 12.4661C57.8162 12.6327 58.0538 12.8045 58.2716 12.9761C58.9928 13.3731 59.6183 14.5499 59.8305 15.3185C60.4268 17.4779 59.327 20.1744 58.4427 22.1468C57.3797 24.5166 56.0216 26.8718 54.5508 29.0085C54.4448 29.1631 54.2171 29.4598 54.1963 29.6266L54.1548 29.6181C54.0799 29.4598 53.3648 29.0528 53.1597 28.9195C53.1753 28.9407 52.6247 28.4296 52.4965 28.2803C52.5568 28.0523 53.5906 26.5868 53.7853 26.2783C54.1181 25.7413 54.441 25.1982 54.754 24.6494C55.6199 23.1529 56.3718 21.593 57.0026 19.9831C57.6917 18.2143 58.1858 16.8938 57.4028 15.1136C57.2783 15.0541 57.1016 14.679 56.9828 14.5711C56.7456 14.3566 56.5689 14.4353 56.295 14.4203C56.9823 14.1226 57.3778 13.1457 57.5927 12.4661Z" fill="#DCDBDB"/>
<path d="M57.5927 12.4661C57.8161 12.6327 58.0537 12.8045 58.2715 12.9761C58.1216 12.9582 58.0627 12.9022 57.9429 12.8193L57.8915 12.8547C57.8213 13.6149 57.176 13.1883 57.5785 14.522L57.5644 14.5809C57.5097 14.4708 57.4753 14.3801 57.389 14.2928C57.2476 14.288 57.1547 14.345 57.0237 14.4025C57.0294 14.5549 57.588 15.0198 57.6167 15.3017C57.5036 15.2332 57.4942 15.2122 57.4027 15.1136C57.2783 15.0541 57.1015 14.679 56.9827 14.5711C56.7456 14.3566 56.5688 14.4353 56.2949 14.4203C56.9822 14.1226 57.3777 13.1457 57.5927 12.4661Z" fill="#C4C3C4"/>
<path d="M53.7434 10.9745C54.4113 10.3218 55.0128 10.5403 55.7515 10.8909C56.5199 11.2416 57.491 11.5124 57.5928 12.466C57.3778 13.1456 56.9823 14.1225 56.295 14.4202C55.6478 14.4985 55.0039 14.0778 54.4241 13.8571C52.9778 13.3063 52.7402 12.1341 53.7434 10.9745Z" fill="#6F6D72"/>
<path d="M53.7433 10.9745C54.4113 10.3218 55.0128 10.5403 55.7514 10.8909L55.6897 11.0051C55.6039 11.0171 55.5403 11.0248 55.4535 11.0303C55.3041 11.6287 57.4579 11.8529 56.4958 12.757C56.2384 12.9988 55.3479 12.4109 54.9948 12.3326C54.605 12.2462 54.0582 12.3849 53.8253 12.1576C53.6683 11.7407 53.8663 11.4503 53.7485 11.0298C53.7466 11.0114 53.7452 10.9929 53.7433 10.9745Z" fill="#9A989B"/>
<path d="M54.2939 11.1459C54.4961 11.1734 54.5169 11.1682 54.6842 11.2736C54.8294 11.5407 54.6517 11.702 54.424 11.846C54.2274 11.9174 54.1935 11.9279 54.0195 11.8355C53.8805 11.5158 54.061 11.3381 54.2939 11.1459Z" fill="#C4C3C4"/>
<path d="M47.4789 8.83119C48.1322 8.60452 48.5343 8.7473 49.1797 8.90788C49.8519 9.0752 50.6674 9.17492 50.9799 9.89295C51.3429 10.7253 50.8258 12.0443 49.8971 12.2365C49.3659 12.3464 48.4405 12.0376 47.8998 11.8924C47.3294 11.7358 46.9122 11.6566 46.7524 11.0203C46.8354 10.5463 47.1003 9.62671 47.2234 9.10803L47.4789 8.83119Z" fill="#757377"/>
<path d="M47.7697 9.27258C47.9512 9.3122 47.9804 9.32741 48.1506 9.40763C48.3259 9.60246 48.135 9.69079 48.3306 9.91463L48.2533 9.87921C48.16 9.95222 48.1515 9.92485 48.0007 9.92424C47.8786 10.0122 47.8201 10.0457 47.6919 10.1178C47.509 10.1169 47.5839 10.1478 47.4543 10.0353C47.3638 9.71585 47.5278 9.46769 47.7697 9.27258Z" fill="#C4C3C4"/>
</svg>
