<svg width="32" height="29" viewBox="0 0 32 29" fill="none" xmlns="http://www.w3.org/2000/svg">
<path d="M15.6815 7.6004C15.7355 7.59807 15.7896 7.59615 15.844 7.59457C17.9232 7.52833 19.9426 8.28915 21.4483 9.70625C22.9437 11.1111 23.8061 13.049 23.8429 15.0865C23.8812 16.5912 23.8495 18.2407 23.8488 19.7564L23.8479 21.3009C23.8473 21.737 23.9296 22.3231 23.6055 22.6347C23.4844 22.7508 23.2854 22.7936 23.1241 22.8011C22.3554 22.8359 21.5785 22.8216 20.8082 22.8216L16.3288 22.8253H11.4529C10.6298 22.8259 9.80304 22.8362 8.98095 22.8132C8.86274 22.8098 8.59436 22.7648 8.5007 22.7111C8.29548 22.5934 8.17324 22.3451 8.16818 22.1198C8.15827 21.6774 8.16327 21.2392 8.16434 20.799L8.16727 18.3236C8.16484 15.2219 7.82884 12.7637 10.1204 10.2102C11.5586 8.60768 13.5196 7.72236 15.6815 7.6004Z" fill="#FB1500"/>
<path d="M13.9786 8.44082C14.3871 8.43396 14.9672 8.44998 15.3479 8.63004C15.4406 8.67387 15.445 8.85704 15.4129 8.94147C15.3205 9.18488 15.1153 9.4634 15.0268 9.70279C14.8081 10.2946 14.524 10.8449 14.2957 11.4309C14.2252 11.6125 14.2083 11.6742 14.0975 11.836C13.8928 12.1352 13.6405 12.3556 13.4078 12.6294C13.3101 12.7459 13.3317 12.8742 13.2492 12.9549L13.2099 12.9216C13.135 12.9438 13.0285 13.1715 12.9405 13.2428C12.5706 13.5422 12.0645 13.7812 11.7226 14.1018L11.6898 14.0371C11.6965 14.0335 11.5826 14.0941 11.5937 14.0769C11.5519 14.142 11.3734 14.2998 11.3135 14.352L11.2841 14.2913C11.0828 14.5086 10.8659 14.7097 10.6614 14.9222C10.531 15.0577 10.5228 15.0425 10.526 15.1866C10.4912 15.2015 10.4669 15.2152 10.4336 15.233C10.4437 15.305 10.4413 15.269 10.4409 15.3407L10.4226 15.3392L10.3867 15.3041C10.3426 15.3184 10.3622 15.3059 10.3302 15.3451C10.3356 15.3863 10.3413 15.4242 10.3478 15.4652L10.3008 15.4329C10.2379 15.4577 10.263 15.4363 10.231 15.5031C10.2595 15.5859 10.2585 15.5571 10.2566 15.6403L10.1792 15.6424C10.1384 15.7138 10.1488 15.6759 10.1617 15.7604C10.0068 15.968 9.7724 16.6531 9.54756 16.726C9.33427 16.6239 9.06422 15.1798 9.01866 14.9145C8.94129 14.464 8.95229 13.4929 9.06196 13.0514C9.29242 12.1235 9.66568 11.2415 10.4181 10.6177C10.5163 10.4731 10.9842 9.82536 11.1183 9.78163C11.5826 9.63018 11.9204 9.06162 12.3403 8.96062C12.9272 8.81938 13.3933 8.5724 13.9786 8.44082Z" fill="#FF1900"/>
<path d="M12.1112 9.79211L12.134 9.82824C11.9808 9.91578 11.8675 9.97022 11.7395 10.0926C11.7558 10.7261 10.6451 11.6885 10.1579 12.0403C10.141 12.0454 10.124 12.0506 10.107 12.0557C9.93123 12.1215 9.79314 12.5511 9.71815 12.7261L9.70193 12.7423L9.67725 12.7292C10.0314 11.5878 11.0851 10.392 12.1112 9.79211Z" fill="#FCEEEC"/>
<path d="M16.2691 10.1967C15.7582 9.70052 16.0352 9.10535 16.7618 9.16759C19.8722 9.43394 22.1117 12.2643 21.9687 15.282C21.9577 15.516 21.9964 15.7652 21.974 16.0002C21.9605 16.5664 21.2015 16.7213 20.9025 16.2942C20.7563 16.085 20.8082 15.6501 20.7988 15.4058C20.8315 14.7094 20.7749 14.1765 20.5664 13.5021C20.1929 12.2942 19.1283 11.011 17.8855 10.6097C17.5311 10.6198 17.4918 10.4075 17.0517 10.5628C16.7134 10.6821 16.3534 10.602 16.2691 10.1967Z" fill="#FEE5E2"/>
<path d="M16.269 10.1968C16.6636 10.3768 17.3975 10.3212 17.8854 10.6098C17.5311 10.6198 17.4918 10.4076 17.0516 10.5628C16.7133 10.6821 16.3533 10.602 16.269 10.1968Z" fill="#FF1A00"/>
<path d="M7.57511 23.9136C7.95319 23.7156 9.31382 23.7823 9.79691 23.7823L13.0928 23.7817C15.795 23.7823 18.6652 23.7398 21.3537 23.7922C22.2422 23.7593 23.1663 23.7935 24.0576 23.796C24.3745 23.7969 24.6679 24.0669 24.7572 24.3544C25.0999 25.4613 25.4577 26.5874 25.7337 27.7086C25.7916 27.9423 25.5558 28.4631 25.3662 28.6208C24.7298 29.1507 23.315 28.9703 22.489 28.9706L18.0081 28.9722H11.0879C9.90528 28.9722 8.70808 28.9678 7.53983 28.9666C6.84182 28.9657 6.10761 28.3048 6.27422 27.7228C6.44824 27.1148 7.05998 24.5387 7.36414 24.124C7.418 24.0371 7.49632 23.981 7.57511 23.9136Z" fill="black"/>
<path d="M7.57505 23.9136C7.95313 23.7156 9.31376 23.7823 9.79685 23.7823L13.0927 23.7817C15.7949 23.7823 18.6651 23.7398 21.3536 23.7922C20.9817 23.8686 19.7388 23.8273 19.2701 23.8295L13.5502 23.8171L13.54 23.8425C14.1711 24.0734 14.7402 24.0213 15.3931 24.026C15.5207 24.0269 15.7003 24.093 15.8358 24.1169L15.8267 24.1784C15.5984 24.337 14.8001 24.282 14.4911 24.2917L12.4299 24.3683C11.8887 24.3388 11.2081 24.4481 10.6448 24.4136C10.0669 24.3783 9.46181 24.3845 8.88447 24.4118C8.52343 24.4289 8.0898 24.7877 7.72943 24.6486C7.59778 24.5086 7.49035 24.0825 7.57505 23.9136Z" fill="#8D868C"/>
<path d="M7.36414 24.124C7.41799 24.0371 7.49631 23.9809 7.5751 23.9136C7.4904 24.0824 7.59784 24.5086 7.72948 24.6486C8.08985 24.7877 8.52349 24.4288 8.88452 24.4118C9.46187 24.3845 10.0669 24.3782 10.6449 24.4136C11.2082 24.4481 11.8888 24.3388 12.43 24.3683C12.67 24.4555 13.0003 24.386 13.2563 24.4282C11.9205 24.4897 9.21154 24.3093 8.0836 24.8442C7.89766 24.9323 7.8033 25.1331 7.62745 25.2384C7.49248 25.1924 7.56353 24.3658 7.36414 24.124Z" fill="#898489"/>
<path d="M4.55018 4.30557C4.7103 4.28906 4.87949 4.27934 5.03408 4.33087C5.1456 4.36805 5.23304 4.43265 5.31982 4.50966C5.74678 4.88859 8.43174 7.60215 8.57897 7.9182C8.6516 8.07411 8.63896 8.28441 8.57284 8.44001C8.46415 8.69584 8.27274 8.8174 8.02665 8.9198C7.9012 8.93312 7.77446 8.93482 7.65216 8.89959C7.5258 8.86318 7.40755 8.79418 7.3076 8.71031C6.90063 8.36878 4.17977 5.61549 4.03118 5.31841C3.95698 5.17 3.97616 4.9341 4.03643 4.78458C4.134 4.54259 4.31802 4.40962 4.55018 4.30557Z" fill="#FF1A00"/>
<path d="M23.8309 8.78164C23.7391 8.73228 23.6592 8.63174 23.6143 8.5398C23.5212 8.34943 23.5244 8.12604 23.6011 7.93126C23.6988 7.68229 26.3833 4.96644 26.7678 4.61557C26.8612 4.53036 26.9838 4.41445 27.1042 4.37168C27.2994 4.30221 27.5211 4.29951 27.7104 4.38854C27.9418 4.49743 28.0534 4.6805 28.1301 4.9128C28.1716 5.11612 28.1392 5.35218 28.0116 5.51126C27.7041 5.89382 27.284 6.28828 26.9357 6.63897L24.8389 8.75125C24.5235 8.99591 24.1547 9.04523 23.8309 8.78164Z" fill="#F21800"/>
<path d="M24.4006 8.82631C24.238 8.83578 24.039 8.82482 23.934 8.68514C24.011 8.62191 24.6663 8.5878 24.8577 8.36592C24.9583 8.2719 25.0637 7.98224 25.1636 7.90948C25.916 7.36299 26.4889 6.61595 27.1699 5.99158C27.4173 5.76449 27.8402 5.01105 28.1301 4.91284C28.1716 5.11615 28.1392 5.35221 28.0116 5.51129C27.7041 5.89386 27.284 6.28832 26.9357 6.63901L24.8389 8.75129C24.5235 8.99594 24.1547 9.04526 23.8309 8.78167C23.9642 8.73409 24.2695 8.98604 24.4169 8.83776L24.4006 8.82631Z" fill="#EC2D1C"/>
<path d="M15.5142 5.52369C15.424 5.4278 15.3425 5.29492 15.3387 5.15987C15.3224 4.56539 15.3293 3.9679 15.3303 3.37298C15.3315 2.534 15.3277 1.69403 15.3381 0.855231C15.3557 0.605855 15.3592 0.364923 15.5777 0.201186C16.0012 -0.116198 16.4373 -0.0513237 16.7621 0.348193C17.0375 0.86681 16.7872 3.87568 16.8778 4.60167C16.8948 4.73797 16.8771 5.0619 16.8539 5.20903C16.8111 5.42709 16.6398 5.58713 16.4728 5.69602C16.1336 5.81847 16.0386 5.82111 15.705 5.68528C15.6466 5.64453 15.5698 5.57233 15.5142 5.52369Z" fill="#FF1A00"/>
<path d="M15.5142 5.52364C15.7059 5.56601 15.722 5.4235 15.789 5.41109C15.9933 5.37313 16.1263 5.39988 16.3395 5.32346C16.6696 4.96833 16.4656 2.16774 16.5426 1.55601C16.5844 1.2236 16.4109 0.541121 16.762 0.348145C17.0375 0.866762 16.7872 3.87563 16.8777 4.60162C16.8947 4.73792 16.8771 5.06186 16.8539 5.20899C16.8111 5.42704 16.6397 5.58708 16.4728 5.69597C16.1335 5.81843 16.0386 5.82107 15.705 5.68523C15.6465 5.64448 15.5698 5.57228 15.5142 5.52364Z" fill="#EC2D1C"/>
<path d="M15.705 5.68528C15.9528 5.47117 16.2216 5.59473 16.4728 5.69602C16.1336 5.81847 16.0386 5.82111 15.705 5.68528Z" fill="#EC2D1C"/>
<path d="M27.146 16.0096C27.6956 15.9829 31.2437 15.9438 31.5767 16.0776C31.7505 16.1474 31.8832 16.2964 31.9483 16.4684C32.0228 16.6661 32.0187 16.9057 31.9235 17.0963C31.8075 17.3288 31.5786 17.4257 31.3424 17.4964C29.9896 17.5278 28.5672 17.4946 27.2102 17.4871C26.6876 17.4843 26.5078 17.1817 26.4128 16.7158C26.5355 16.2806 26.6864 16.0853 27.146 16.0096Z" fill="#FD1900"/>
<path d="M0.69319 16.0105C1.71935 15.9671 2.79057 16.027 3.82243 15.9997C4.14671 15.991 4.91723 15.9689 5.17042 16.0968C5.34706 16.1862 5.47942 16.3423 5.53721 16.5298C5.69178 17.019 5.36916 17.384 4.89896 17.4936C3.63844 17.5535 2.3156 17.4663 1.04866 17.4995C0.89397 17.5039 0.479737 17.4756 0.359759 17.3896C-0.234976 16.9631 -0.0707592 16.1455 0.69319 16.0105Z" fill="#FE1900"/>
</svg>
