<svg width="34" height="36" viewBox="0 0 34 36" fill="none" xmlns="http://www.w3.org/2000/svg">
<path d="M25.5041 0.0243391C25.7515 -0.00568435 26.2345 -0.00382521 26.4813 0.00804198C28.4125 0.0996435 30.2297 0.949214 31.5384 2.37229C32.7949 3.75971 33.3715 5.38475 33.2712 7.2491C33.1667 8.98286 32.3725 10.6027 31.0659 11.7471C29.6374 13.0232 27.5723 13.7578 25.6594 13.6546C24.7682 13.5778 23.7231 13.3296 22.901 12.9749C22.277 13.1886 21.6474 13.4462 21.0162 13.6388C20.8142 13.7005 20.7185 13.6751 20.5655 13.5439C20.4273 13.1548 20.751 12.0705 20.856 11.6294C19.734 10.6436 18.9744 9.01819 18.8159 7.53676C18.6171 5.82017 19.1222 4.09631 20.216 2.75849C21.5642 1.09304 23.3953 0.243691 25.5041 0.0243391Z" fill="#FEFEFE"/>
<path d="M24.2949 3.7246C25.0121 3.68812 25.1258 3.84797 25.3792 4.49345C25.9644 5.98407 26.569 7.50826 27.0554 9.03257C27.2217 9.55352 26.9821 10.2004 26.3519 9.84347C26.0005 9.64441 25.8121 8.80955 25.6922 8.41881L24.8176 8.42953C24.3498 8.42515 23.882 8.43166 23.4145 8.44911C23.2228 8.87961 23.149 9.50638 22.7867 9.81252C22.5768 9.98993 22.0929 9.87246 21.9647 9.62374C21.8448 9.39137 21.9913 9.09152 22.0539 8.85549C22.3418 8.05743 22.6421 7.23242 22.9437 6.44142C23.2606 5.61 23.5224 4.76071 23.9148 3.96566C23.9478 3.89878 24.2187 3.76343 24.2949 3.7246Z" fill="#6D59F8"/>
<path d="M24.477 5.21802C24.6712 5.37524 25.2313 7.09615 25.3556 7.45156L24.5555 7.4444L23.7607 7.43056C23.9299 6.71476 24.2799 5.97314 24.477 5.21802Z" fill="#FEFEFE"/>
<path d="M28.8129 3.71597C28.9089 3.7116 28.9956 3.71729 29.0897 3.73856C29.2066 3.76508 29.3549 3.83946 29.4149 3.94599C29.5498 4.18563 29.5804 9.13665 29.4702 9.53505C29.4106 9.75068 29.2441 9.81839 29.0612 9.9136C28.8077 9.90381 28.6189 9.87007 28.438 9.68544C28.1905 9.16061 28.4373 5.63654 28.3499 4.85238C28.2865 4.28418 28.2991 3.98454 28.8129 3.71597Z" fill="#6D59F8"/>
<path d="M14.0591 13.5334C16.6547 13.294 19.1232 14.1832 21.2332 15.6423C23.0313 15.0586 24.8012 15.903 25.7384 17.5035C27.3377 20.2346 31.1447 23.4724 28.5162 26.777C27.6543 27.8606 26.0109 28.4965 24.723 27.8786C22.8966 27.0023 23.0945 24.3246 22.9508 22.6427L22.6041 18.6389C22.5783 18.3521 22.5665 17.4856 22.5054 17.3143C22.3989 17.1832 22.3043 17.0654 22.1225 17.0471C21.8588 17.0206 21.6811 17.1862 21.4922 17.339C21.4375 17.3805 21.3829 17.422 21.3282 17.4635C20.684 16.9598 20.0422 16.4104 19.324 16.0136C18.5155 15.5669 17.4831 15.1743 16.5672 15.0627C14.2516 14.5074 11.1277 15.0673 9.22532 16.5212C8.30805 14.5868 7.73219 17.7247 7.54953 18.3847L6.55761 21.9601C6.31507 22.8301 6.08298 23.7446 5.74009 24.5794C5.14399 26.0307 3.85561 26.9738 2.2788 26.3002C1.36574 25.9075 0.648898 25.1642 0.289437 24.2375C-0.121102 23.208 -0.093922 22.0555 0.364687 21.0464C0.545156 20.645 0.778891 20.2697 1.05949 19.9306C1.73926 19.0952 2.78778 18.1143 3.5796 17.3579C5.49859 15.525 6.8194 13.2568 9.78827 14.5798C11.3429 13.9021 12.3881 13.6275 14.0591 13.5334Z" fill="#FEFEFE"/>
<path d="M5.04457 27.123C5.48026 33.6242 14.7058 34.9238 19.4992 32.7501C21.6651 31.7678 22.5748 30.4196 23.3543 28.2793C23.6588 28.5574 24.0729 28.7714 24.4435 28.9458C24.2816 29.5017 24.2125 29.7415 23.9589 30.2604C23.6315 30.935 23.1997 31.5537 22.6793 32.0935C18.5283 36.4295 8.79066 36.033 5.15203 31.1358C4.45296 30.1949 3.85889 28.7647 3.83838 27.5836C4.32969 27.4479 4.61106 27.3962 5.04457 27.123Z" fill="#FEFEFE"/>
<path d="M13.665 25.1679C16.3377 25.0035 16.9189 27.0794 14.573 28.0163C14.549 28.3918 14.5531 28.5741 14.5815 28.9494C15.0401 29.662 15.5877 30.082 16.3906 29.4944C16.6863 29.278 16.935 28.9282 17.2931 28.8181C17.5629 28.7351 17.8799 28.9553 17.9364 29.2232C18.0453 30.1362 16.8578 30.7671 16.1269 30.8912C15.3898 31.0164 14.7656 30.8369 14.1904 30.428C14.0881 30.3311 13.9264 30.1362 13.8273 30.0237C13.7443 30.0933 13.6599 30.1614 13.5744 30.2279C12.4781 31.0756 10.5552 30.6418 10.0244 29.3349C9.96305 29.1838 9.87938 28.8682 9.91296 28.7064C9.93658 28.5879 10.0054 28.4832 10.1048 28.4146C10.4602 28.1736 10.8506 28.254 11.0317 28.6417C11.3558 29.3357 12.0938 29.7967 12.804 29.3138C13.3019 28.9752 13.3803 28.5093 13.4938 27.9696L13.4412 27.9372C11.949 27.0124 11.7034 25.5701 13.665 25.1679Z" fill="#FEFEFE"/>
<path d="M6.23102 6.80859C6.61799 7.00689 6.9407 7.81654 7.15939 8.23998C7.69632 8.51922 8.11232 8.74196 8.62868 9.06462C6.62307 9.92184 7.36743 9.85556 6.383 11.2392L6.33345 11.2541C6.05591 11.0965 5.80025 10.0237 5.39463 9.73585L5.36439 9.71474C5.04266 9.48571 4.46199 9.24886 4.0835 9.08135C5.44079 8.11437 5.44855 8.69493 6.23102 6.80859Z" fill="#FEFEFE"/>
<path d="M9.83861 3.13599C10.3412 3.31481 10.2377 3.93918 10.647 4.31067C11.0101 4.64017 11.5157 4.82616 11.9648 5.02117C10.5977 5.86238 10.8916 5.26612 9.98709 6.9552C9.55692 6.89045 9.541 6.02458 9.11455 5.69093L9.08928 5.67152C8.81689 5.45895 8.21024 5.19322 7.87451 5.03485C9.32849 4.3944 9.15234 4.45549 9.83861 3.13599Z" fill="#FEFEFE"/>
<path d="M18.5233 22.2132C18.7525 22.2053 19.0116 22.2116 19.2435 22.2117C20.3535 22.9285 20.364 24.1806 19.1204 24.7309C18.5675 24.8746 17.9959 24.5886 17.7511 24.0784C17.596 23.7471 17.5779 23.3679 17.7008 23.0234C17.8618 22.5731 18.1123 22.4054 18.5233 22.2132Z" fill="#FEFEFE"/>
<path d="M10.1085 21.6368C10.7786 21.5326 11.4091 21.9828 11.5282 22.6503C11.6473 23.3178 11.2114 23.9582 10.5467 24.0922C9.94256 24.214 9.34007 23.8764 9.12854 23.2976C9.02747 23.0211 9.02748 22.7178 9.12848 22.4413C9.2844 22.0147 9.65977 21.7066 10.1085 21.6368Z" fill="#FEFEFE"/>
</svg>
