<svg width="19" height="19" viewBox="0 0 19 19" fill="none" xmlns="http://www.w3.org/2000/svg">
<path d="M13.6458 16.2309C12.7422 17.0458 11.7617 16.9103 10.8195 16.516C9.82234 16.1128 8.90541 16.0899 7.8483 16.498C6.52452 17.0254 5.82851 16.8658 5.04398 16.1788C0.595122 11.8083 1.29544 5.19776 6.37732 4.98674C7.61496 5.05468 8.47347 5.63846 9.19762 5.69465C10.281 5.49396 11.3208 4.90442 12.4758 4.98913C13.86 5.10113 14.9022 5.62557 15.5844 6.56233C12.7134 8.15977 13.3706 11.7129 15.9873 12.7218C15.4567 14.0139 14.7703 15.2965 13.6366 16.2395L13.6458 16.2309ZM9.11041 4.95148C8.98452 3.02502 10.654 1.4462 12.5624 1.30232C12.8148 3.53179 10.393 5.17513 9.11041 4.95148Z" fill="white"/>
</svg>
