<svg width="19" height="19" viewBox="0 0 19 19" fill="none" xmlns="http://www.w3.org/2000/svg">
<path opacity="0.987" fill-rule="evenodd" clip-rule="evenodd" d="M8.21302 1.24188C9.02919 1.15569 9.5118 1.15861 10.3876 1.25504C11.9375 1.49404 13.3712 2.2198 14.4814 3.32737C13.7223 4.03619 12.9732 4.75549 12.234 5.48505C10.8343 4.28405 9.26547 3.9993 7.52762 4.63079C6.2521 5.20807 5.36062 6.15069 4.85319 7.45865C4.04063 6.84602 3.23879 6.21931 2.44803 5.5788C2.39299 5.5494 2.32998 5.53837 2.26822 5.54733C3.54518 3.12127 5.52641 1.68574 8.21191 1.24074" fill="#F44336"/>
<path opacity="0.997" fill-rule="evenodd" clip-rule="evenodd" d="M2.26567 5.54739C2.32948 5.53803 2.38979 5.54852 2.44661 5.57886C3.23737 6.21938 4.03921 6.84609 4.85177 7.45871C4.72023 7.96874 4.6361 8.48983 4.60046 9.01534C4.62513 9.524 4.70273 10.0236 4.83327 10.5142L2.28421 12.5181C1.19346 10.203 1.18728 7.87941 2.26567 5.54739Z" fill="#FFC107"/>
<path opacity="0.999" fill-rule="evenodd" clip-rule="evenodd" d="M14.2896 15.0372C13.5039 14.3358 12.6809 13.6774 11.8243 13.0647C12.6904 12.461 13.219 11.6287 13.4099 10.5678L9.18335 10.5422L9.20113 7.60713C11.6387 7.60164 14.0749 7.63702 16.5097 7.71327C16.9565 10.2248 16.4092 12.4835 14.8678 14.4894C14.6848 14.6816 14.4911 14.8645 14.2896 15.0372Z" fill="#448AFF"/>
<path opacity="0.993" fill-rule="evenodd" clip-rule="evenodd" d="M4.83273 10.5154C5.74133 12.8137 7.42607 13.8941 9.88694 13.7568C10.578 13.681 11.2415 13.4438 11.8239 13.0642C12.6812 13.6784 13.503 14.3359 14.2893 15.0367C13.03 16.1546 11.429 16.8127 9.74751 16.9037C9.36544 16.932 8.98173 16.9296 8.60003 16.8968C5.73863 16.542 3.63318 15.0824 2.28368 12.5182L4.83273 10.5154Z" fill="#43A047"/>
</svg>
