<svg width="24" height="24" viewBox="0 0 24 24" fill="none" xmlns="http://www.w3.org/2000/svg">
<path d="M12 12C13.6875 11.9688 15.1094 11.3906 16.2656 10.2656C17.3906 9.10938 17.9688 7.6875 18 6C17.9688 4.3125 17.3906 2.89062 16.2656 1.73438C15.1094 0.609375 13.6875 0.03125 12 0C10.3125 0.03125 8.89062 0.609375 7.73438 1.73438C6.60938 2.89062 6.03125 4.3125 6 6C6.03125 7.6875 6.60938 9.10938 7.73438 10.2656C8.89062 11.3906 10.3125 11.9688 12 12ZM14.3906 14.25H9.60938C7.32812 14.3125 5.42188 15.1094 3.89062 16.6406C2.35938 18.1719 1.5625 20.0781 1.5 22.3594C1.5 22.8281 1.65625 23.2188 1.96875 23.5312C2.28125 23.8438 2.67188 24 3.14062 24H20.8594C21.3281 24 21.7188 23.8438 22.0312 23.5312C22.3438 23.2188 22.5 22.8281 22.5 22.3594C22.4375 20.0781 21.6406 18.1719 20.1094 16.6406C18.5781 15.1094 16.6719 14.3125 14.3906 14.25Z" fill="#93C5FD"/>
</svg>
